<?xml version="1.0" encoding="utf-8"?>
<!-- Generator: Adobe Illustrator 21.0.0, SVG Export Plug-In . SVG Version: 6.00 Build 0)  -->
<svg version="1.1" id="Ebene_1" xmlns="http://www.w3.org/2000/svg" xmlns:xlink="http://www.w3.org/1999/xlink" x="0px" y="0px"
	 viewBox="0 0 1000 1000" style="enable-background:new 0 0 1000 1000;" xml:space="preserve">
<style type="text/css">
	.st0{fill:#729551;}
	.st1{fill:#BBD18A;}
	.st2{fill:#97B555;}
	.st3{fill:#E5E3C3;}
</style>
<g>
	<g>
		<path class="st0" d="M266.6,623.3c22.3,34.6,47,68,73.6,99.3c0,0,6.8,181.3,19.8,192.2c6.8,5.7,124.8-57,124.8-57
			c18.2,13.2,36.8,25.4,55.8,36.3c84,48.5,161.9,66.6,226.3,57.8l-9.7,22.4l76.7-43.7c2.4-1.3,4.8-2.7,7.2-4.1l1.1-0.6l0,0
			c61.6-37.7,99-112,99-217c0-126-53.8-270.1-138.9-395.6L266.6,623.3z"/>
		<path class="st1" d="M540.5,60.9C425.4-5.5,321.7-14.9,248.6,23.7l0,0l-0.7,0.4c-3.5,1.9-7,3.9-10.4,6l-85.3,49l34.4-1.2
			c-29.8,41.1-46.8,97.8-46.8,168.4c0,119.9,48.7,256,126.7,377l535.5-310C731.9,209.6,640.5,118.7,540.5,60.9z"/>
		<path class="st2" d="M460,106.7C238.8-21,59.5,62,59.5,292.1c0,154.2,80.6,335.2,200.3,476.3c0,0,6.8,181.3,19.8,192.2
			c6.8,5.7,124.8-57,124.8-57c18.2,13.2,36.8,25.4,55.7,36.3c221.2,127.7,400.6,44.8,400.6-185.3C860.6,524.5,681.3,234.5,460,106.7
			z"/>
	</g>
	<g>
		<path class="st3" d="M322.9,439.8c0,44.4-31.2,62.4-69.6,40.2c-38.5-22.2-69.6-76.2-69.6-120.6c0-44.4,31.2-62.4,69.6-40.2
			C291.7,341.4,322.9,395.4,322.9,439.8z"/>
		<path class="st3" d="M530,559.3c0,44.4-31.2,62.4-69.6,40.2c-38.5-22.2-69.6-76.2-69.6-120.6c0-44.4,31.2-62.4,69.6-40.2
			C498.8,460.9,530,514.9,530,559.3z"/>
		<path class="st3" d="M738.9,679.9c0,44.4-31.2,62.4-69.6,40.2c-38.5-22.2-69.6-76.2-69.6-120.6s31.2-62.4,69.6-40.2
			C707.7,581.5,738.9,635.5,738.9,679.9z"/>
	</g>
</g>
</svg>
