<?xml version="1.0" encoding="utf-8"?>
<!-- Generator: Adobe Illustrator 21.0.0, SVG Export Plug-In . SVG Version: 6.00 Build 0)  -->
<svg version="1.1" id="Ebene_1" xmlns="http://www.w3.org/2000/svg" xmlns:xlink="http://www.w3.org/1999/xlink" x="0px" y="0px"
	 viewBox="0 0 1000 1000" style="enable-background:new 0 0 1000 1000;" xml:space="preserve">
<style type="text/css">
	.st0{fill:#CE3E3D;}
	.st1{fill:#E5E3C3;}
	.st2{fill:#C5BC93;}
	.st3{fill:#F05555;}
	.st4{fill:#FF8484;}
	.st5{fill:#D4D0CD;}
	.st6{fill:#B1B1B3;}
	.st7{fill:#FED544;}
	.st8{fill:#97B555;}
	.st9{fill:#64ADD8;}
	.st10{fill:#FAF9E1;}
</style>
<g>
	<g>
		<g>
			<polygon class="st0" points="680.8,258.8 798.5,477.8 813.3,469.3 813.3,315.7 			"/>
			<g>
				<polygon class="st1" points="202.2,76.2 202.2,687.9 732.2,994 732.2,382.1 				"/>
				<polygon class="st2" points="732.2,382.1 732.2,994 798.5,955.7 798.5,343.4 				"/>
			</g>
			<g>
				<polygon class="st0" points="717.6,371.2 599.8,458.7 717.4,526.7 732.2,518.2 732.4,382.2 800.6,342.6 800.6,323.1 				"/>
				<polygon class="st3" points="651.3,256.4 187.5,66.4 187.5,222 717.6,526.7 717.6,371.2 783.8,332.9 				"/>
				<polygon class="st4" points="283.4,11.1 187.5,66.4 717.6,371.2 813.3,315.7 				"/>
			</g>
		</g>
		<g>
			<g>
				<g>
					<g>
						<g>
							<path class="st5" d="M715,192.4c-7.3-21.9-23.5-34.1-44.5-34.1v22.1c24.1,0,26.7,28.6,26.7,40.9c0,8.3-1.1,17.1-3,25.9
								l3.6,2.1l0,0l51,29.3C757.6,222,732.3,200.4,715,192.4z"/>
						</g>
					</g>
				</g>
			</g>
			<g>
				<g>
					<g>
						<g>
							<path class="st5" d="M694.2,164.7c0,0-0.1,0-0.1,0c-6.8-4.1-14.8-6.3-23.6-6.3l0,0h0c-11.9,0-25.2,3.9-39.4,12
								c-48.7,28.1-88.2,96.5-88.2,152.8c0,26.1,8.6,45,22.6,54.9c0,0,0,0.1,0,0.1l0.8,0.5c1.2,0.8,2.5,1.6,3.7,2.2l29.8,17.9
								c0,0-2.4-7.7-4.7-19.9c0.1-4.9-0.9-10.8-2.1-13.4c-3.9-29.7-3.9-73.6,20.6-106.7c40.7-55,118.8-70.9,118.8-70.9L694.2,164.7z
								"/>
						</g>
					</g>
				</g>
			</g>
			<g>
				<g>
					<g>
						<g>
							<g>
								<path class="st6" d="M665.6,191.1c-48.7,28.1-88.2,96.5-88.2,152.8c0,35.8,16,57.9,40.1,62.2v-22.8c-16.1-6-18-28.7-18-39.4
									c0-48.3,35.3-109.5,77.2-133.6c10.3-5.9,20.1-9.1,28.3-9.1l0-22.1h0C693.1,179.1,679.7,183,665.6,191.1z"/>
							</g>
						</g>
					</g>
				</g>
				<g>
					<g>
						<g>
							<g>
								<path class="st6" d="M705,179.1v22.1c24.1,0,26.7,28.6,26.7,40.9c0,8.1-1,16.5-2.9,25.1l20,11.5c3.2-12.4,5-24.8,5-36.6
									C753.8,202.1,733.9,179.1,705,179.1z"/>
							</g>
						</g>
					</g>
				</g>
			</g>
		</g>
		<g>
			<g>
				<g>
					<g>
						<g>
							<path class="st5" d="M450,40.1C442.6,18.2,426.5,6,405.5,6v22.1c24.1,0,26.7,28.6,26.7,40.9c0,8.3-1.1,17.1-3,25.9l3.6,2.1
								l0,0l51,29.3C492.6,69.7,467.3,48.1,450,40.1z"/>
						</g>
					</g>
				</g>
			</g>
			<g>
				<g>
					<g>
						<g>
							<path class="st5" d="M429.2,12.3c0,0,0,0-0.1,0C422.2,8.2,414.3,6,405.5,6l0,0h0c-11.9,0-25.2,3.9-39.4,12
								c-48.7,28.1-88.2,96.5-88.2,152.8c0,26.1,8.6,45,22.6,54.9c0,0,0,0.1,0,0.1l0.8,0.5c1.2,0.8,2.4,1.6,3.7,2.2l29.8,17.9
								c0,0-2.4-7.7-4.7-19.9c0.1-4.9-0.9-10.8-2.1-13.4c-3.9-29.7-3.9-73.6,20.6-106.7c40.7-55,118.8-70.9,118.8-70.9L429.2,12.3z"
								/>
						</g>
					</g>
				</g>
			</g>
			<g>
				<g>
					<g>
						<g>
							<g>
								<path class="st6" d="M400.6,38.8c-48.7,28.1-88.2,96.5-88.2,152.8c0,35.8,16,57.9,40.1,62.2v-22.8c-16.1-6-18-28.7-18-39.4
									c0-48.3,35.3-109.5,77.2-133.6c10.3-5.9,20.1-9.1,28.3-9.1l0-22.1h0C428.1,26.7,414.7,30.6,400.6,38.8z"/>
							</g>
						</g>
					</g>
				</g>
				<g>
					<g>
						<g>
							<g>
								<path class="st6" d="M440,26.7v22.1c24.1,0,26.7,28.6,26.7,40.9c0,8.1-1,16.5-2.9,25.1l20,11.5c3.2-12.4,5-24.8,5-36.6
									C488.8,49.8,468.9,26.7,440,26.7z"/>
							</g>
						</g>
					</g>
				</g>
			</g>
		</g>
	</g>
	<g>
		<polygon class="st3" points="404.7,502.6 404.6,570.6 463.5,604.7 463.5,536.6 		"/>
		<polygon class="st7" points="272.1,579.2 272.1,647.2 331,681.2 331,613.2 		"/>
		<polygon class="st8" points="603.4,693.9 603.4,761.9 662.3,795.9 662.3,727.9 		"/>
		<polygon class="st9" points="537.2,655.7 537.2,723.7 596.1,757.7 596.1,689.7 		"/>
		<g>
			<polygon class="st10" points="338.4,455.9 397.3,489.9 397.3,421.9 338.4,387.9 			"/>
			<polygon class="st10" points="470.9,761.9 529.8,795.9 529.8,727.9 470.9,693.9 			"/>
			<polygon class="st10" points="404.6,647.2 463.5,681.2 463.5,613.1 404.6,579.2 			"/>
			<polygon class="st10" points="338.4,532.4 397.3,566.4 397.3,498.4 338.4,464.4 			"/>
			<polygon class="st10" points="404.6,723.7 463.5,757.7 463.5,689.7 404.6,655.7 			"/>
			<polygon class="st10" points="272.1,570.7 331,604.7 331,536.6 272.1,502.6 			"/>
			<polygon class="st10" points="272.1,494.1 331,528.1 331,460.1 272.1,426.1 			"/>
			<polygon class="st10" points="272.1,417.6 331,451.6 331,383.6 272.2,349.6 			"/>
			<polygon class="st10" points="338.4,608.9 397.3,642.9 397.3,574.9 338.4,540.9 			"/>
			<polygon class="st10" points="338.4,685.4 397.3,719.4 397.3,651.4 338.4,617.4 			"/>
			<polygon class="st10" points="404.7,494.1 463.5,528.1 463.6,460.1 404.7,426.1 			"/>
			<polygon class="st10" points="537.2,570.6 596.1,604.7 596.1,536.6 537.2,502.6 			"/>
			<polygon class="st10" points="603.4,838.4 662.3,872.4 662.3,804.4 603.4,770.4 			"/>
			<polygon class="st10" points="603.4,685.4 662.3,719.4 662.3,651.4 603.4,617.4 			"/>
			<polygon class="st10" points="470.9,685.4 529.8,719.4 529.8,651.4 470.9,617.4 			"/>
			<polygon class="st10" points="603.4,540.9 603.4,608.9 662.3,642.9 662.3,574.9 			"/>
			<polygon class="st10" points="470.9,532.4 529.8,566.4 529.8,498.4 470.9,464.4 			"/>
			<polygon class="st10" points="537.2,647.2 596.1,681.2 596.1,613.1 537.2,579.2 			"/>
			<polygon class="st10" points="470.9,608.9 529.8,642.9 529.8,574.9 470.9,540.9 			"/>
			<polygon class="st10" points="537.1,800.2 596.1,834.2 596.1,766.2 537.2,732.2 			"/>
		</g>
	</g>
</g>
</svg>
