<?xml version="1.0" encoding="utf-8"?>
<!-- Generator: Adobe Illustrator 21.0.0, SVG Export Plug-In . SVG Version: 6.00 Build 0)  -->
<svg version="1.1" id="Ebene_1" xmlns="http://www.w3.org/2000/svg" xmlns:xlink="http://www.w3.org/1999/xlink" x="0px" y="0px"
	 viewBox="0 0 1000 1000" style="enable-background:new 0 0 1000 1000;" xml:space="preserve">
<style type="text/css">
	.st0{fill:#FDC86D;}
	.st1{fill:#C97724;}
	.st2{fill:#ED9F32;}
	.st3{fill:#E5E3C3;}
</style>
<g>
	<g>
		<polygon class="st0" points="234.7,2 102.2,78.7 765.1,461.5 897.6,384.7 		"/>
		<polygon class="st1" points="765.1,461.5 765.1,997 897.6,920.5 897.6,384.7 		"/>
		<polygon class="st2" points="765.1,461.5 102.2,78.7 102.2,614.2 301,729.1 433.6,958.7 566.2,882.2 543.2,868.9 765.1,997 		"/>
	</g>
	<path class="st3" d="M599.9,597c0-59.6-41.8-132-93.4-161.8c-29.6-17.1-56-16.4-73.1-1.5c-17.1-34.7-43.5-65.9-73.1-83
		c-51.6-29.8-93.4-5.6-93.4,53.9c0,0.9,0,1.8,0.1,2.7c0,0.7-0.1,1.3-0.1,2c0,93.8,166.5,335.3,166.5,335.3s166.5-49.2,166.5-143.1
		c0-0.7,0-1.4-0.1-2.1C599.9,598.8,599.9,597.9,599.9,597z"/>
</g>
</svg>
