<?xml version="1.0" encoding="utf-8"?>
<!-- Generator: Adobe Illustrator 22.1.0, SVG Export Plug-In . SVG Version: 6.00 Build 0)  -->
<svg version="1.1" id="Ebene_1" xmlns="http://www.w3.org/2000/svg" xmlns:xlink="http://www.w3.org/1999/xlink" x="0px" y="0px"
	 viewBox="0 0 1000 1000" style="enable-background:new 0 0 1000 1000;" xml:space="preserve">
<style type="text/css">
	.st0{fill:#FCC86F;}
	.st1{fill:#C97725;}
	.st2{fill:#EEA034;}
	.st3{fill:#E4E2C3;}
</style>
<g>
	<g>
		<polygon class="st0" points="240.2,12.5 110.3,87.7 759.9,462.7 889.7,387.5 		"/>
		<polygon class="st1" points="759.9,462.7 759.9,987.5 889.7,912.6 889.7,387.5 		"/>
		<polygon class="st2" points="759.9,462.7 110.3,87.7 110.3,612.4 305.1,725 435.1,950 565,875 542.4,861.9 759.9,987.5 		"/>
	</g>
	<path class="st3" d="M598,595.6c0-58.4-41-129.4-91.5-158.6c-29-16.8-54.9-16.1-71.6-1.4c-16.8-34-42.6-64.5-71.6-81.3
		c-50.6-29.2-91.5-5.5-91.5,52.9c0,0.9,0,1.7,0.1,2.6c0,0.7-0.1,1.3-0.1,2c0,91.9,163.2,328.6,163.2,328.6S598,692.1,598,600.2
		c0-0.7,0-1.4-0.1-2C598,597.3,598,596.5,598,595.6z"/>
</g>
</svg>
