<?xml version="1.0" encoding="utf-8"?>
<!-- Generator: Adobe Illustrator 21.0.0, SVG Export Plug-In . SVG Version: 6.00 Build 0)  -->
<svg version="1.1" id="Ebene_1" xmlns="http://www.w3.org/2000/svg" xmlns:xlink="http://www.w3.org/1999/xlink" x="0px" y="0px"
	 viewBox="0 0 1000 1000" style="enable-background:new 0 0 1000 1000;" xml:space="preserve">
<style type="text/css">
	.st0{fill:#ED9F32;}
	.st1{fill:#C97724;}
	.st2{fill:#9E5E1C;}
	.st3{fill:#FDC86D;}
</style>
<g>
	<polygon class="st0" points="96.7,361.6 96.7,756.9 536.8,994 537.4,598.8 	"/>
	<polygon class="st1" points="96.7,335 96.7,464 536.8,701.2 537.4,572.2 	"/>
	<polygon class="st1" points="536.8,994 536.8,598.8 903.6,401.1 903.6,796.5 	"/>
	<polygon class="st2" points="903.6,374.8 903.6,503.8 537.4,701.2 536.8,572.2 	"/>
	<polygon class="st3" points="536.8,519.7 23.3,243.2 463.5,6 977,282.5 	"/>
	<polygon class="st1" points="536.8,519.7 536.8,677.8 977,440.6 977,282.5 	"/>
	<polygon class="st0" points="23.3,401.3 23.3,243.2 536.8,519.7 536.8,677.8 	"/>
	<polygon class="st1" points="243.4,598.8 243.3,677.8 390.1,756.9 390.1,677.8 	"/>
	<polygon class="st2" points="271.9,614.2 243.4,598.8 243.3,677.8 390.1,756.9 390.1,726.3 271.9,662.6 	"/>
</g>
</svg>
