<?xml version="1.0" encoding="utf-8"?>
<!-- Generator: Adobe Illustrator 21.0.0, SVG Export Plug-In . SVG Version: 6.00 Build 0)  -->
<svg version="1.1" id="Ebene_1" xmlns="http://www.w3.org/2000/svg" xmlns:xlink="http://www.w3.org/1999/xlink" x="0px" y="0px"
	 viewBox="0 0 1000 1000" style="enable-background:new 0 0 1000 1000;" xml:space="preserve">
<style type="text/css">
	.st0{fill:#C0B7A6;}
	.st1{fill:#B1B1B3;}
	.st2{fill:#E9E8E6;}
	.st3{fill:#A0938A;}
	.st4{fill:#64ADD8;}
	.st5{fill:#84CDEB;}
	.st6{fill:#D4D0CD;}
</style>
<g>
	<path class="st0" d="M853.4,888.4L715.3,649.2c-12.3-21.3-39.5-28.6-60.8-16.3c-21.3,12.3-28.6,39.5-16.3,60.8L761.9,993
		c0,0,53.9-31.4,75.2-43.7C858.4,937,865.7,909.7,853.4,888.4z"/>
	<g>
		<path class="st1" d="M666,187.2l-245.9,142c105.6,119.4,155.7,279.5,219.4,427.4c13.9-8.6,35.5-21.3,63.5-35.8
			c54.8-28.4,88.9-93.6,88.9-187.7C791.8,419.4,741.9,290.3,666,187.2z"/>
		<path class="st2" d="M666,187.2C620.4,125.5,565.6,73.1,506.5,39C427.7-6.5,356.4-10.8,304.8,19c-51.6,29.8-81.9,47.7-81.9,47.7
			s-14.3,190.7,23.7,362.7c9.3,41.9,21.6,82.7,38.1,119.3c42,93.6,336.9,219.4,336.9,219.4s6.3-4.3,17.9-11.5
			c-63.7-147.9-113.8-308.1-219.4-427.4L666,187.2z"/>
	</g>
	<path class="st3" d="M776.5,933.2L638.4,693.9c-12.3-21.3-39.5-28.6-60.8-16.3c-21.3,12.3-28.6,39.5-16.3,60.8l138.1,239.2
		c12.3,21.3,39.5,28.6,60.8,16.3C781.5,981.7,788.8,954.5,776.5,933.2z"/>
	<path class="st4" d="M466.9,600.6c97.2,56.1,176.2,10.5,176.2-101.7c0-112.2-79.1-249.1-176.2-305.3
		c-97.2-56.1-176.2-10.5-176.2,101.8C290.6,407.6,369.7,544.5,466.9,600.6z"/>
	<g>
		<path class="st5" d="M291.2,279.8c36.5-36.5,73-73,109.4-109.4C340.3,163.9,296.5,204.6,291.2,279.8z"/>
		<path class="st5" d="M604.5,349.7c-67,67-133.9,133.9-200.9,200.8c18.2,18.7,37.9,34.7,58.5,47.2
			c57.4-57.4,114.4-114.5,171.2-171.2C626.7,400.7,616.8,374.7,604.5,349.7z"/>
		<path class="st5" d="M466.9,193.7c-5.3-3.1-10.5-5.7-15.7-8.2L294.8,341.8c9.5,55.1,34.8,112.6,69.4,161.3
			c69.4-69.4,138.7-138.7,208.1-208.1C542.9,252.6,506.4,216.5,466.9,193.7z"/>
	</g>
	<path class="st6" d="M426,85.8c-157.6-91-285.3-17.2-285.3,164.7c0,182,127.7,403.2,285.3,494.2c157.6,91,285.3,17.2,285.3-164.7
		S583.6,176.8,426,85.8z M426,618.8c-97.2-56.1-176.2-193-176.2-305.2c0-112.2,79.1-157.9,176.2-101.8
		c97.2,56.1,176.2,193,176.2,305.3C602.3,629.3,523.2,674.9,426,618.8z"/>
</g>
</svg>
