<?xml version="1.0" encoding="utf-8"?>
<!-- Generator: Adobe Illustrator 21.0.0, SVG Export Plug-In . SVG Version: 6.00 Build 0)  -->
<svg version="1.1" id="Ebene_1" xmlns="http://www.w3.org/2000/svg" xmlns:xlink="http://www.w3.org/1999/xlink" x="0px" y="0px"
	 viewBox="0 0 1000 1000" style="enable-background:new 0 0 1000 1000;" xml:space="preserve">
<style type="text/css">
	.st0{fill:#729551;}
	.st1{fill:#BBD18A;}
	.st2{fill:#97B555;}
</style>
<g>
	<path class="st0" d="M679,351.6c12.9,34.6,20.2,69.9,20.2,103.1c0,105.3-73.9,147.9-165,95.3c-91.1-52.6-165-180.6-165-285.8
		c0-50.1,16.8-86,44.1-104.2c-45.3-19.3-96.5-29.7-145-34.7c-6.4,23.3-9.8,49.8-9.8,79.1c0,72.8,20.9,152,56.1,226.3l148.7,565.2
		l74.6-44.2l227.7-268.2c32.3-34,51.4-87.2,51.4-156.6c0-71.8-20.3-149.9-54.7-223.3L679,351.6z"/>
	<path class="st1" d="M537.7,43.1C459.3-2.2,388.5-5.7,337.8,25.1l-0.2,0l-74.5,44.1l19.4,18.1c-5.7,11.5-10.5,24.1-14.3,37.9
		c48.5,5,99.7,15.4,145,34.7c30.1-20,73.1-18.7,120.9,8.9c62.5,36.1,116.8,107.5,144.8,182.8l83.3-48.1
		C711.4,194.8,629.8,96.2,537.7,43.1z"/>
	<path class="st2" d="M463.1,87.3C308.8-1.7,183.8,70.4,183.8,248.6c0,72.8,20.9,152,56.1,226.3l223.4,521L691,727.7
		c32.3-34,51.4-87.2,51.4-156.6C742.4,392.9,617.3,176.3,463.1,87.3z M459.5,594.2c-91.1-52.6-165-180.6-165-285.8
		c0-105.2,73.9-147.9,165-95.3c91.1,52.6,165,180.6,165,285.8C624.6,604.2,550.7,646.8,459.5,594.2z"/>
</g>
</svg>
