<?xml version="1.0" encoding="utf-8"?>
<!-- Generator: Adobe Illustrator 21.0.0, SVG Export Plug-In . SVG Version: 6.00 Build 0)  -->
<svg version="1.1" id="Ebene_1" xmlns="http://www.w3.org/2000/svg" xmlns:xlink="http://www.w3.org/1999/xlink" x="0px" y="0px"
	 viewBox="0 0 1000 1000" style="enable-background:new 0 0 1000 1000;" xml:space="preserve">
<style type="text/css">
	.st0{fill:#729551;}
	.st1{fill:#97B555;}
	.st2{fill:#BBD18A;}
	.st3{fill:#E6AC00;}
	.st4{fill:#FED544;}
	.st5{fill:#FFED8E;}
	.st6{fill:#CE3E3D;}
	.st7{fill:#F05555;}
	.st8{fill:#FF8484;}
</style>
<g>
	<g>
		<polygon class="st0" points="201.2,538.3 201.2,768.1 532.9,576.6 532.9,346.3 		"/>
		<polygon class="st1" points="68.5,461.4 68.5,691.5 201.2,768.1 201.2,538.5 		"/>
		<polygon class="st2" points="400.2,269.8 68.5,461.4 201.2,538.5 532.8,346.4 		"/>
	</g>
	<g>
		<polygon class="st3" points="400.3,270.2 400.3,883 732,691.6 732,78.6 		"/>
		<polygon class="st4" points="267.6,193.6 267.7,806.4 400.3,883 400.3,270.2 		"/>
		<polygon class="st5" points="599.3,2 267.6,193.6 400.3,270.2 732,78.6 		"/>
	</g>
	<g>
		<polygon class="st6" points="599.3,538.5 599.3,997.9 931,806.4 931,346.4 		"/>
		<polygon class="st7" points="466.6,461.4 466.6,921.3 599.3,997.9 599.3,538.5 		"/>
		<polygon class="st8" points="798.3,269.8 466.6,461.4 599.3,538.5 931,346.4 		"/>
	</g>
</g>
</svg>
