<?xml version="1.0" encoding="utf-8"?>
<!-- Generator: Adobe Illustrator 21.0.0, SVG Export Plug-In . SVG Version: 6.00 Build 0)  -->
<svg version="1.1" id="Ebene_1" xmlns="http://www.w3.org/2000/svg" xmlns:xlink="http://www.w3.org/1999/xlink" x="0px" y="0px"
	 viewBox="0 0 1000 1000" style="enable-background:new 0 0 1000 1000;" xml:space="preserve">
<style type="text/css">
	.st0{fill:#B1B1B3;}
	.st1{fill:#E9E8E6;}
	.st2{fill:#D4D0CD;}
	.st3{fill:#526A70;}
</style>
<g>
	<path class="st0" d="M925.6,664.2c0-92.4-26.5-193-71.2-287.4L357.5,663.8c59.4,85.9,133.2,159.1,213.2,205.3
		c44.7,25.8,87.5,41,127,46.3l-20.2,61.3l141.7-81.3h0C884.8,858.8,925.6,778.8,925.6,664.2z"/>
	<path class="st1" d="M570.7,49.7c-98.7-57-188-62-252.4-24l0,0l-142.7,81.9l72.3-4.9c-20.6,40-32,91.1-32,151.8
		c0,133.9,55.6,284.8,141.6,409.2l496.8-286.9C789.6,240.2,686.7,116.6,570.7,49.7z"/>
	<path class="st2" d="M783.6,745.7c0,226.3-158.9,318-354.8,204.8C232.9,837.4,74,562.3,74,336c0-226.3,158.9-318,354.8-204.9
		C624.8,244.3,783.6,519.4,783.6,745.7z"/>
	<path class="st1" d="M712.7,704.7c0,181-127.1,254.4-283.9,163.9C272.1,778.1,145,558,145,377c0-181,127.1-254.4,283.9-163.9
		C585.6,303.6,712.7,523.7,712.7,704.7z"/>
	<path class="st0" d="M476.1,841c-156.8-90.5-283.9-310.6-283.9-491.6c0-76.2,22.5-133.4,60.4-167.2C187,204.3,145,272.8,145,377
		c0,181,127.1,401.1,283.9,491.6c90.8,52.4,171.6,49.9,223.5,3.3C603.9,888.3,542.7,879.4,476.1,841z"/>
	<path class="st3" d="M593.5,568.3l-106.2-61.4V337.4c0-4.9-3.4-10.8-7.7-13.3l-43.2-25c-4.2-2.4-7.7-0.5-7.7,4.4v228.2
		c0,4.9,3.4,10.8,7.7,13.3l0.1,0.1l0,0l156.9,90.7c4.2,2.4,7.7,0.5,7.7-4.4v-49.9C601.2,576.6,597.8,570.7,593.5,568.3z"/>
</g>
</svg>
