<?xml version="1.0" encoding="utf-8"?>
<!-- Generator: Adobe Illustrator 21.0.0, SVG Export Plug-In . SVG Version: 6.00 Build 0)  -->
<svg version="1.1" id="Ebene_1" xmlns="http://www.w3.org/2000/svg" xmlns:xlink="http://www.w3.org/1999/xlink" x="0px" y="0px"
	 viewBox="0 0 1000 1000" style="enable-background:new 0 0 1000 1000;" xml:space="preserve">
<style type="text/css">
	.st0{fill:#C0B7A6;}
	.st1{fill:#C97724;}
	.st2{fill:#ED9F32;}
	.st3{fill:#FDC86D;}
	.st4{fill:#BBD18A;}
	.st5{fill:#97B555;}
	.st6{fill:#8C7C6F;}
	.st7{fill:#A0938A;}
	.st8{fill:#E9E8E6;}
	.st9{fill:#B1B1B3;}
	.st10{fill:#D4D0CD;}
</style>
<g>
	<polygon class="st0" points="915,481.6 816.9,538.5 758.4,391.1 	"/>
	<polygon class="st1" points="644.8,456.9 644.8,1000 723.1,954.7 723.1,909.5 762.3,886.8 801.5,909.5 801.5,909.5 879.9,864.2 
		879.9,321.1 	"/>
	<path class="st2" d="M644.8,456.9L84.7,93.1v543.4v-0.8c0,21.9,13.4,43.9,40.2,61.6l44.9,26.1L644.8,1000V456.9z"/>
	<path class="st3" d="M390.1,38.3l-30.6-17.7C292.9-9.1,195.9-6.7,134.4,27.9c-62.9,35.3-66,91.5-9.3,129l14.2,8.2l505.5,291.9
		l235.2-135.8L390.1,38.3z"/>
	<path class="st4" d="M293.2,72.9L293.2,72.9c-0.2-0.1-0.4-0.3-0.6-0.4c-22-12.3-57.6-12.3-79.6,0c-22,12.3-22,32.3,0,44.6
		l510.2,294.5l78.4-45.3L293.2,72.9z"/>
	<polygon class="st5" points="723.1,411.6 723.1,909.5 762.3,886.8 801.5,909.5 801.5,366.4 	"/>
	<path class="st2" d="M293.2,72.9L293.2,72.9c-0.2-0.1-0.4-0.3-0.6-0.4c-22-12.3-57.6-12.3-79.6,0c-22,12.3-22,32.3,0,44.6l0.6,0.4
		c22-12,57.2-11.9,79,0.3c0.2,0.1,0.4,0.3,0.6,0.4l0,0L762.3,389l0,497.8l39.2,22.6V366.4L293.2,72.9z"/>
	<g>
		<g>
			<polygon class="st6" points="644.8,637.9 644.6,818.7 915,663.4 915,481.8 			"/>
			<path class="st0" d="M897.4,491.8l-17.5-10.1L644.8,617.7l-139.1-80.8l-0.1,0.1c0,0,0,0-0.1,0c-21.6-12.4-41.1-13.7-55.3-5.6l0,0
				l-0.1,0.1c-0.1,0-0.1,0.1-0.1,0.1l-19.3,11.4l7.7-1c-7.2,9.5-11.3,23.1-11.3,40.3c0,49.9,35.1,110.7,78.4,135.6
				c43.3,25,78.4,4.7,78.4-45.2c0-28.2-11.2-59.8-28.7-86.4l72,41.7l-0.1,0l16.9,9.7l0.6,0.3l17.5-10.1l-0.1,0L897.4,491.8z"/>
			<path class="st7" d="M488,547.1v0.1c-43.3-25-78.4-4.7-78.4,45.2c0,49.9,35.1,110.7,78.4,135.6v0.1l156.6,90.6l0.1-180.8
				L488,547.1z"/>
		</g>
		<g>
			<g>
				<path class="st8" d="M488,595.9c-20-11.5-36.2-2.2-36.2,20.9c0,11.5,4.1,24.3,10.6,35.7l51.2-29.6
					C507,611.5,498,601.6,488,595.9z"/>
				<path class="st9" d="M524.2,658.6c0-11.6-4.1-24.3-10.6-35.7l-51.2,29.6c6.6,11.3,15.6,21.3,25.6,27c5.3,3.1,10.3,4.6,14.9,4.9
					l1.1-2.3h9.6l0,0C520.1,678.3,524.2,670.2,524.2,658.6z"/>
				<path class="st9" d="M502.9,684.3l-2.5,5.2l13.1-7.5C510.4,683.8,506.8,684.6,502.9,684.3z"/>
				<path class="st9" d="M503.9,682l-1.1,2.3c4,0.2,7.6-0.5,10.6-2.3l0,0H503.9z"/>
			</g>
			<g>
				<path class="st8" d="M460.5,598l2.1-4.8l-12.2,7C453.3,598.6,456.8,597.8,460.5,598z"/>
				<path class="st8" d="M449.9,600.5L449.9,600.5c0.1,0,0.1-0.1,0.2-0.1L449.9,600.5z"/>
				<path class="st10" d="M475.9,602.8c-5.5-3.2-10.7-4.7-15.4-4.9l-1.1,2.6h-9.4c-6.4,3.9-10.3,11.9-10.3,23.2
					c0,23.1,16.2,51.2,36.2,62.7c20,11.5,36.2,2.2,36.2-20.9C512.1,642.5,495.9,614.4,475.9,602.8z"/>
				<path class="st10" d="M450.1,600.4l0.4-0.2C450.3,600.3,450.2,600.4,450.1,600.4z"/>
				<path class="st10" d="M460.5,598c-3.7-0.1-7.2,0.6-10.1,2.3l-0.4,0.2c0,0-0.1,0.1-0.1,0.1h9.4L460.5,598z"/>
			</g>
		</g>
	</g>
</g>
</svg>
