<?xml version="1.0" encoding="utf-8"?>
<!-- Generator: Adobe Illustrator 21.0.0, SVG Export Plug-In . SVG Version: 6.00 Build 0)  -->
<svg version="1.1" id="Ebene_1" xmlns="http://www.w3.org/2000/svg" xmlns:xlink="http://www.w3.org/1999/xlink" x="0px" y="0px"
	 viewBox="0 0 1000 1000" style="enable-background:new 0 0 1000 1000;" xml:space="preserve">
<style type="text/css">
	.st0{fill:#FF8484;}
	.st1{fill:#CE3E3D;}
	.st2{fill:#F05555;}
	.st3{fill:#FAF9E1;}
	.st4{fill:#97B555;}
	.st5{fill:#A0938A;}
	.st6{fill:#729551;}
</style>
<g>
	<path class="st0" d="M611.5,49.7C508.1-10,414.6-15.2,347.3,24.6l0,0l-73.7,42.9l15.3,12C257.8,124.3,240,186.7,240,264.2
		c0,140.2,58.2,298.2,148.2,428.5l520.2-300.4C840.6,249.2,732.9,119.8,611.5,49.7z"/>
	<path class="st1" d="M983,693.2c0-96.8-27.8-202.1-74.6-300.9L388.3,692.7c62.1,89.9,139.4,166.6,223.2,215
		c61.3,35.4,119.1,51.6,170.1,50.7l15.9,19.9l74.2-43.1l0,0C940.4,896.9,983,813.1,983,693.2z"/>
	<path class="st2" d="M909,736.3c0-234.7-163.2-519.5-365.7-639.9l0,0c-1.9-1.1-3.8-2.4-5.8-3.5C332.3-25.6,166,70.4,166,307.3
		c0,236.9,166.3,525,371.5,643.5c1.9,1.1,3.8,2.1,5.8,3.2l0,0C745.8,1067.3,909,970.9,909,736.3z"/>
	<g>
		<path class="st3" d="M537.5,273C656.3,341.6,753,509,753,646.2s-96.7,193-215.5,124.4C418.7,702,322,534.6,322,397.4
			C322,260.2,418.7,204.4,537.5,273L537.5,273z M537.5,204.3c-151.8-87.7-274.9-16.6-274.9,158.7c0,175.3,123.1,388.5,274.9,476.2
			c151.8,87.7,274.9,16.6,274.9-158.7C812.4,505.2,689.3,292,537.5,204.3L537.5,204.3z"/>
		<path class="st3" d="M537.5,453.1c32.8,18.9,59.4,65.1,59.4,103c0,37.8-26.7,53.2-59.4,34.3c-32.8-18.9-59.4-65.1-59.4-103
			S504.7,434.2,537.5,453.1L537.5,453.1z M537.5,384.5c-65.7-37.9-118.9-7.2-118.9,68.6c0,75.8,53.2,168,118.9,205.9
			c65.6,37.9,118.9,7.2,118.9-68.6S603.1,422.4,537.5,384.5L537.5,384.5z"/>
	</g>
	<g>
		<polygon class="st4" points="166.1,650.9 17.5,736.7 91.8,779.7 240.5,693.8 		"/>
		<g>
			<path class="st5" d="M91.7,800.3c-7.1,0-14.1-3.7-17.9-10.3c-5.7-9.9-2.3-22.5,7.5-28.2l446.6-258c9.9-5.7,22.5-2.3,28.2,7.5
				c5.7,9.9,2.3,22.5-7.5,28.2L102,797.6C98.7,799.4,95.2,800.3,91.7,800.3z"/>
		</g>
		<polygon class="st6" points="91.8,867.9 91.8,782.1 240.5,696.2 240.4,782.1 		"/>
	</g>
</g>
</svg>
