<?xml version="1.0" encoding="utf-8"?>
<!-- Generator: Adobe Illustrator 21.0.0, SVG Export Plug-In . SVG Version: 6.00 Build 0)  -->
<svg version="1.1" id="Ebene_1" xmlns="http://www.w3.org/2000/svg" xmlns:xlink="http://www.w3.org/1999/xlink" x="0px" y="0px"
	 viewBox="0 0 1000 1000" style="enable-background:new 0 0 1000 1000;" xml:space="preserve">
<style type="text/css">
	.st0{fill:#FAF9E1;}
	.st1{fill:#C5BC93;}
	.st2{fill:#E5E3C3;}
</style>
<g>
	<polygon class="st0" points="811.4,1000 880.6,960 187.8,560 118.5,599.9 	"/>
	<polygon class="st0" points="811.4,440 880.6,400.1 187.8,0 118.5,40 	"/>
	<polygon class="st1" points="811.4,1000 811.4,440 880.6,400.1 880.6,960 	"/>
	<polygon class="st2" points="118.5,599.9 118.5,40 811.4,440 811.4,1000 	"/>
	<polygon class="st1" points="811.4,440 795.2,430.7 436.9,599.8 143.8,54.6 118.5,40 118.5,72.5 367,534.7 118.5,584.2 
		118.5,599.9 138.7,611.6 382.2,563.1 423.6,640.1 474.8,615.9 773.3,978 811.4,1000 811.4,975.8 503.6,602.4 811.4,457.1 	"/>
</g>
</svg>
