<?xml version="1.0" encoding="utf-8"?>
<!-- Generator: Adobe Illustrator 21.0.0, SVG Export Plug-In . SVG Version: 6.00 Build 0)  -->
<svg version="1.1" id="Ebene_1" xmlns="http://www.w3.org/2000/svg" xmlns:xlink="http://www.w3.org/1999/xlink" x="0px" y="0px"
	 viewBox="0 0 1000 1000" style="enable-background:new 0 0 1000 1000;" xml:space="preserve">
<style type="text/css">
	.st0{fill:#E9E8E6;}
	.st1{fill:#B1B1B3;}
	.st2{fill:#D4D0CD;}
	.st3{fill:#526A70;}
	.st4{fill:#3F5052;}
	.st5{fill:#8C7C6F;}
	.st6{fill:#A0938A;}
	.st7{fill:#C0B7A6;}
</style>
<g>
	<g>
		<polygon class="st0" points="788.4,407.6 852.6,370.7 210.7,0 146.5,37 		"/>
		<polygon class="st1" points="788.4,1000.5 788.4,407.7 852.6,370.7 852.6,963.5 		"/>
		<polygon class="st2" points="146.5,629.8 146.5,37 788.4,407.6 788.4,1000.5 		"/>
	</g>
	<g>
		<polygon class="st3" points="257.1,619.6 292.7,640.2 292.7,195.6 257.1,175 		"/>
		<polygon class="st3" points="642.3,397.3 642.2,842 677.9,862.6 677.9,417.9 		"/>
		<polygon class="st3" points="449.6,730.8 485.3,751.4 485.3,306.8 449.6,286.2 		"/>
		<polygon class="st4" points="274.8,185.2 257.1,175 257.1,619.6 292.7,640.2 292.7,619.2 274.8,608.8 		"/>
		<polygon class="st4" points="659.9,407.5 642.3,397.3 642.2,842 677.9,862.6 677.9,841.6 659.9,831.2 		"/>
		<polygon class="st4" points="467.3,296.4 449.6,286.2 449.6,730.8 485.3,751.4 485.3,730.4 467.3,720 		"/>
	</g>
	<g>
		<polygon class="st5" points="210.6,222.3 274.9,446 339.1,444.6 339.1,296.3 		"/>
		<polygon class="st6" points="146.6,295 146.6,371.9 274.9,446 274.9,369.1 		"/>
		<polygon class="st7" points="210.6,222.3 146.6,295 274.9,369.1 339.1,296.3 		"/>
	</g>
	<g>
		<polygon class="st5" points="403.1,507.6 467.5,731.3 531.7,729.9 531.7,581.6 		"/>
		<polygon class="st6" points="339.2,580.3 339.2,657.2 467.5,731.3 467.5,654.4 		"/>
		<polygon class="st7" points="403.1,507.6 339.2,580.3 467.5,654.4 531.7,581.6 		"/>
	</g>
	<g>
		<polygon class="st5" points="595.7,400.6 660.1,624.3 724.3,622.9 724.2,474.6 		"/>
		<polygon class="st6" points="531.8,473.3 531.8,550.2 660.1,624.3 660.1,547.4 		"/>
		<polygon class="st7" points="595.7,400.6 531.8,473.3 660.1,547.4 724.2,474.6 		"/>
	</g>
</g>
</svg>
