<?xml version="1.0" encoding="utf-8"?>
<!-- Generator: Adobe Illustrator 21.0.0, SVG Export Plug-In . SVG Version: 6.00 Build 0)  -->
<svg version="1.1" id="Ebene_1" xmlns="http://www.w3.org/2000/svg" xmlns:xlink="http://www.w3.org/1999/xlink" x="0px" y="0px"
	 viewBox="0 0 1000 1000" style="enable-background:new 0 0 1000 1000;" xml:space="preserve">
<style type="text/css">
	.st0{fill:#E5E3C3;}
	.st1{fill:#C5BC93;}
	.st2{fill:#FAF9E1;}
	.st3{fill:#ED9F32;}
	.st4{fill:#FED544;}
	.st5{fill:#84CDEB;}
	.st6{fill:#FDC86D;}
	.st7{fill:#C97724;}
	.st8{fill:#E6AC00;}
	.st9{fill:#64ADD8;}
	.st10{fill:#97B555;}
</style>
<g>
	<polygon class="st0" points="226.9,40 226.8,679.9 781.2,1000 781.2,360 	"/>
	<polygon class="st1" points="781.2,1000 850.5,959.9 850.5,319.5 781.2,360 	"/>
	<polygon class="st2" points="781.2,360 226.9,40 296.2,0 850.5,319.5 	"/>
	<g>
		<polygon class="st3" points="296.1,160 712,400 712,800.5 296.1,560 		"/>
		<polygon class="st4" points="296.1,160 712,400 712,720.1 296.1,480.1 		"/>
		<polygon class="st5" points="296.1,160 712,400 712,640.1 296.3,400.1 		"/>
		<polygon class="st6" points="296.1,560 712,800.5 712,782.5 311.8,551 		"/>
		<polygon class="st7" points="311.8,489.1 296.1,498.1 296.1,560 311.8,551 		"/>
		<polygon class="st8" points="311.8,409 296.1,418.1 296.1,498.1 311.8,489.1 		"/>
		<polygon class="st9" points="311.8,169 296.1,160 296.1,418.1 311.8,409.1 		"/>
		<path class="st4" d="M434.6,342.2c0,32.2-22.6,45.2-50.4,29.1c-27.8-16.1-50.4-55.2-50.4-87.3c0-32.2,22.6-45.2,50.4-29.1
			C412.1,270.9,434.6,310,434.6,342.2z"/>
		<path class="st10" d="M672.1,561.7c-4.6-2.8-10.5,0.5-10.5,5.9v11.9c0,4.3-4.6,6.9-8.3,4.8l-10.7-6.2v-99.4
			c0-23.8-12.8-45.9-33.3-57.7l-2.5-1.5c-14.8-8.7-33.4,2.1-33.4,19.3l0,60.1l-8.2-4.6c-5.2-2.9-8.4-8.4-8.4-14.3v-39.9
			c0-10.6-8.6-19.2-19.2-19.2c-10.6,0-19.2,8.6-19.2,19.2v52.8c0,11.9,6.5,22.9,16.8,28.7l38.3,21.4l0,97.3l69.3,40v-80l23.2,13.4
			c7.4,4.3,16.7-1.1,16.7-9.6v-23.8C682.6,572.6,678.6,565.6,672.1,561.7z"/>
	</g>
</g>
</svg>
