<?xml version="1.0" encoding="utf-8"?>
<!-- Generator: Adobe Illustrator 21.0.0, SVG Export Plug-In . SVG Version: 6.00 Build 0)  -->
<svg version="1.1" id="Ebene_1" xmlns="http://www.w3.org/2000/svg" xmlns:xlink="http://www.w3.org/1999/xlink" x="0px" y="0px"
	 viewBox="0 0 1000 1000" style="enable-background:new 0 0 1000 1000;" xml:space="preserve">
<style type="text/css">
	.st0{fill:#C5BC93;}
	.st1{fill:#E5E3C3;}
	.st2{fill:#97B555;}
	.st3{fill:#BBD18A;}
	.st4{fill:#FED544;}
	.st5{fill:#FFED8E;}
	.st6{fill:#729551;}
	.st7{fill:#FAF9E1;}
	.st8{fill:#CE3E3D;}
	.st9{fill:#FF8484;}
	.st10{fill:#F05555;}
</style>
<g>
	<g>
		<polygon class="st0" points="984,739.3 984,703.4 532.2,964.2 532.2,1000 		"/>
		<polygon class="st1" points="16,702 16,666.1 145,702.1 274.1,815.1 403.1,851.7 532.2,964.2 532.2,1000 403.1,887.6 274.1,851 
			145,737.9 		"/>
		<g>
			<polygon class="st2" points="725.8,554.4 621.4,462.9 169.7,723.7 274,815.1 274.1,815.1 315.7,826.9 767.4,566.2 			"/>
			<polygon class="st3" points="596.8,441.3 467.7,405.3 16,666.1 145,702.1 169.7,723.7 621.4,462.9 			"/>
			<polygon class="st3" points="854.9,591 767.4,566.2 315.7,826.9 403.1,851.7 427.9,873.3 879.6,612.5 			"/>
			<polygon class="st2" points="984,703.4 879.6,612.5 427.9,873.3 532.2,964.2 			"/>
		</g>
		<g>
			<polygon class="st4" points="481.2,731.4 292,708.6 292,653 256.1,673.7 256.2,704.3 212.4,699 169.7,723.7 178,731 429.5,761.3 
							"/>
			<polygon class="st5" points="169.7,723.7 212.4,699 137.2,689.9 136,699.6 145,702.1 			"/>
			<polygon class="st5" points="256.1,553 256.1,673.7 292,653 292,552.9 			"/>
			<polygon class="st5" points="481.2,731.4 429.5,761.3 488.4,768.4 630,704.1 675.2,730.5 710.9,709.9 670,685.9 863.2,598.2 
				854.9,591 816.4,580 482.8,731.6 			"/>
			<polygon class="st4" points="741.3,727.6 710.9,709.9 675.2,730.5 710.1,750.9 733.5,848 765.9,829.3 			"/>
		</g>
		<path class="st6" d="M472.5,458.2L579.3,488l122.9,107.7l6.1,5.3l7.8,2.2l121.4,34.4l80.5,70.1c13.8-6.4,28.3-8.5,43-10.1
			l-105.9-92.3l-129.1-36.6l-129-113.1l-129.1-36L68.9,649.9c1.5,0.1,3,0.3,4.5,0.5c14.6,2,27.7,6.5,38.8,15.9L472.5,458.2z"/>
		<path class="st7" d="M472.5,443.9l106.8,29.8l122.9,107.7l6.1,5.3l7.8,2.2l121.4,34.4l85.1,74.2L536.4,920.3l-109.7-95.6l-6-5.3
			l-7.7-2.2l-121.3-34.4l-123-107.7l-6.1-5.4l-7.9-2.2l-46.8-13.1L472.5,443.9L472.5,443.9z M467.7,405.3L16,666.1l129,36l129,113.1
			h0l129.1,36.6l129,112.4L984,703.4L854.9,591l-129.1-36.6l-129-113.1L467.7,405.3L467.7,405.3z"/>
	</g>
	<g>
		<path class="st8" d="M648.9,262.4c9.7,26.2,15.3,52.9,15.3,78c0,79.7-55.9,112-124.9,72.1c-69-39.8-124.9-136.7-124.9-216.4
			c0-37.9,12.7-65.1,33.4-78.9C413.4,102.7,374.7,94.8,338,91c-4.8,17.7-7.4,37.7-7.4,59.9c0,55.1,15.8,115,42.5,171.3L485.6,750
			l56.5-33.5l172.3-203c24.5-25.7,38.9-66,38.9-118.5c0-54.3-15.4-113.4-41.4-169L648.9,262.4z"/>
		<path class="st9" d="M541.9,28.8C482.6-5.4,429-8.1,390.6,15.2l-0.2,0l-56.4,33.4l14.7,13.7c-4.3,8.7-8,18.3-10.8,28.7
			c36.7,3.8,75.5,11.7,109.8,26.3c22.8-15.2,55.4-14.1,91.5,6.7c47.3,27.3,88.4,81.4,109.6,138.3l63.1-36.4
			C673.4,143.7,611.6,69,541.9,28.8z"/>
		<path class="st10" d="M485.5,62.3c-116.7-67.4-211.4-12.8-211.4,122c0,55.1,15.8,115,42.5,171.3L485.6,750l172.3-203
			c24.5-25.7,38.9-66,38.9-118.5C696.9,293.6,602.2,129.7,485.5,62.3z M482.8,446c-69-39.8-124.9-136.7-124.9-216.4
			c0-79.7,55.9-112,124.9-72.1c69,39.8,124.9,136.7,124.9,216.4C607.7,453.5,551.7,485.8,482.8,446z"/>
	</g>
</g>
</svg>
