<?xml version="1.0" encoding="utf-8"?>
<!-- Generator: Adobe Illustrator 21.0.0, SVG Export Plug-In . SVG Version: 6.00 Build 0)  -->
<svg version="1.1" id="Ebene_1" xmlns="http://www.w3.org/2000/svg" xmlns:xlink="http://www.w3.org/1999/xlink" x="0px" y="0px"
	 viewBox="0 0 1000 1000" style="enable-background:new 0 0 1000 1000;" xml:space="preserve">
<style type="text/css">
	.st0{fill:#D4D0CD;}
	.st1{fill:#B1B1B3;}
	.st2{fill:#E9E8E6;}
	.st3{fill:#FAF9E1;}
	.st4{fill:#C5BC93;}
	.st5{fill:#64ADD8;}
	.st6{fill:#FF8484;}
</style>
<g>
	<path class="st0" d="M146.3,372.3c-45.8,26.5-80.8,56.8-105.1,89.2l-41.4-37.8v152.8v0c0,73.9,48.8,147.7,146.4,204.1
		c59.3,34.3,129.9,58,204.8,71.5V300.8C276.2,314.2,205.7,338,146.3,372.3z"/>
	<path class="st1" d="M999.7,417.6l-41.1,44c-24.3-32.4-59.3-62.8-105.2-89.3C717.5,293.8,522.8,270,351.2,300.8V852
		c171.6,30.8,366.3,7,502.2-71.5c97.7-56.4,146.5-130.3,146.4-204.3l0.2,0.2L999.7,417.6z"/>
	<path class="st2" d="M853.4,219.5c-195.2-112.7-511.8-112.7-707.1,0c-195.3,112.7-195.3,295.5,0,408.2
		c195.3,112.7,511.8,112.7,707.1,0C1048.7,515,1048.7,332.3,853.4,219.5z"/>
	<path class="st3" d="M761.6,272.5c-144.6-83.5-379-83.5-523.5,0c-144.6,83.5-144.6,218.8,0,302.3c144.6,83.5,379,83.5,523.5,0
		C906.2,491.3,906.2,356,761.6,272.5z"/>
	<path class="st4" d="M238.1,316.3c144.6-83.5,379-83.5,523.5,0c62.6,36.2,98.1,82.1,106.4,129.3c10.9-61.7-24.5-125.7-106.4-173
		c-144.6-83.5-379-83.5-523.5,0c-81.9,47.3-117.4,111.3-106.4,173C140,398.3,175.5,352.4,238.1,316.3z"/>
	<polygon class="st5" points="428.4,404.9 714.7,322.2 571.5,487.6 	"/>
	<polygon class="st6" points="428.4,404.9 571.5,487.6 285.2,570.2 	"/>
	<path class="st3" d="M537.1,422c-20.6-11.9-54-11.9-74.6,0c-20.6,11.9-20.6,31.2,0,43c20.6,11.9,54,11.9,74.6,0
		C557.7,453.2,557.7,433.9,537.1,422z"/>
</g>
</svg>
