<?xml version="1.0" encoding="utf-8"?>
<!-- Generator: Adobe Illustrator 21.0.0, SVG Export Plug-In . SVG Version: 6.00 Build 0)  -->
<svg version="1.1" id="Ebene_1" xmlns="http://www.w3.org/2000/svg" xmlns:xlink="http://www.w3.org/1999/xlink" x="0px" y="0px"
	 viewBox="0 0 1000 1000" style="enable-background:new 0 0 1000 1000;" xml:space="preserve">
<style type="text/css">
	.st0{fill:#E9E8E6;}
	.st1{fill:#6C7F80;}
	.st2{fill:#3F5052;}
	.st3{fill:#526A70;}
	.st4{fill:#D4D0CD;}
	.st5{fill:#62ACD9;}
	.st6{fill:#84CDEB;}
	.st7{fill:#6388A3;}
	.st8{fill:#7D8E8F;}
	.st9{fill:#B1B1B3;}
</style>
<g>
	<polygon class="st0" points="557.3,933.2 961,700.3 442,400.5 38.3,633.6 	"/>
	<polygon class="st1" points="615,833.4 788,733.5 384.8,500.9 211.3,600.3 	"/>
	<polygon class="st2" points="384.8,500.9 211.3,600.3 222.3,606.5 384.8,513.7 	"/>
	<polygon class="st3" points="777.1,739.8 788,733.5 384.8,500.9 384.8,513.7 	"/>
	<polygon class="st4" points="384.3,433.8 903.3,733.5 903.3,334 384.3,34.3 	"/>
	<polygon class="st0" points="903.3,334 384.3,34.3 442,1 961,300.7 	"/>
	<polygon class="st4" points="557.3,999.8 557.3,933.2 38.3,633.6 38.3,700.2 	"/>
	<polygon class="st5" points="442,400.2 845.7,633.5 845.7,367.2 442,134.2 	"/>
	<g>
		<path class="st6" d="M527.7,183.7c-28.6,28.6-57.1,57.2-85.7,85.7v54c40-40,80-80,119.9-119.9L527.7,183.7z"/>
		<path class="st6" d="M780.9,329.8l-47.3-27.3C677.2,358.8,621,415.1,564.7,471.3l47.3,27.3C668.7,442,724.8,385.9,780.9,329.8z"/>
		<path class="st6" d="M591.3,220.4L442,369.7v30.8l83.8,48.4c56.3-56.3,112.6-112.6,168.9-168.8L591.3,220.4z"/>
	</g>
	<polygon class="st7" points="454.8,141.6 442,134.2 442,400.5 454.8,393.1 	"/>
	<polygon class="st6" points="442,400.5 845.7,633.5 845.7,619.7 454.8,393.1 	"/>
	<path class="st8" d="M679.3,726.9l43.3-25l-6.4-3.7l-43.3,25l-51.6-29.7l43.5-24.8l-6.4-3.7l-43.5,24.8l-51.2-29.5l43.5-24.9
		l-6.4-3.7l-43.5,24.9L505.9,627l43.2-25l-6.4-3.7l-43.2,25l-51-29.4l43.2-24.9l-6.4-3.7L442,590.2l-51.3-29.6l43.2-25l-6.4-3.7
		l-43.2,24.9l-43-24.8l-6.4,3.7l43,24.8l-51.2,29.6l-43.3-25l-6.4,3.7l43.4,25l-54.5,31.5l6.4,3.7l54.5-31.5l282.1,162.6l-54.7,31.6
		l6.4,3.7l54.7-31.6l54.5,31.4l6.4-3.7l-54.5-31.4l51.3-29.6l54.5,31.4l6.4-3.7L679.3,726.9z M384.4,623.5l-51.2-29.5l51.2-29.6
		l51.3,29.6L384.4,623.5z M441.8,656.6l-51-29.4l51.3-29.6l51,29.4L441.8,656.6z M448.2,660.3l51.2-29.6l51.4,29.6l-51.5,29.5
		L448.2,660.3z M505.7,693.4l51.5-29.5l51.2,29.5l-51.6,29.4L505.7,693.4z M615.2,756.5l-51.9-29.9l51.6-29.4l51.6,29.7L615.2,756.5
		z"/>
	<path class="st3" d="M679.3,733.4l43.3-25l-6.4-3.7l-43.3,25l-51.6-29.7l43.5-24.8l-6.4-3.7l-43.5,24.8l-51.2-29.5l43.5-24.9
		l-6.4-3.7L557.2,663l-51.4-29.6l43.2-25l-6.4-3.7l-43.2,25l-51-29.4l43.2-24.9l-6.4-3.7L442,596.6L390.8,567l43.2-25l-6.4-3.7
		l-43.2,24.9l-43-24.8l-6.4,3.7l43,24.8l-51.2,29.6l-43.3-25l-6.4,3.7l43.4,25l-54.5,31.5l6.4,3.7l54.5-31.5l282.1,162.6l-54.7,31.6
		l6.4,3.7l54.7-31.6l54.5,31.4l6.4-3.7l-54.5-31.4l51.3-29.6l54.5,31.4l6.4-3.7L679.3,733.4z M384.4,629.9l-51.2-29.5l51.2-29.6
		l51.3,29.6L384.4,629.9z M441.8,663l-51-29.4l51.3-29.6l51,29.4L441.8,663z M448.2,666.7l51.2-29.6l51.4,29.6l-51.5,29.5
		L448.2,666.7z M505.7,699.8l51.5-29.5l51.2,29.5l-51.6,29.4L505.7,699.8z M615.2,763L563.3,733l51.6-29.4l51.6,29.7L615.2,763z"/>
	<polygon class="st9" points="959.7,300.7 903.3,334 903.3,733.5 557.3,933.2 557.3,999.8 961,766.5 	"/>
</g>
</svg>
