<?xml version="1.0" encoding="utf-8"?>
<!-- Generator: Adobe Illustrator 21.0.0, SVG Export Plug-In . SVG Version: 6.00 Build 0)  -->
<svg version="1.1" id="Ebene_1" xmlns="http://www.w3.org/2000/svg" xmlns:xlink="http://www.w3.org/1999/xlink" x="0px" y="0px"
	 viewBox="0 0 1000 1000" style="enable-background:new 0 0 1000 1000;" xml:space="preserve">
<style type="text/css">
	.st0{fill:#FFFFFF;}
	.st1{fill:url(#SVGID_1_);}
</style>
<g id="CIBNnb.tif">
	<g>
		<path class="st0" d="M3.2,1000.4c0-332.4,0-664.8,0-997.2c332.4,0,664.8,0,997.2,0c0,332.4,0,664.8,0,997.2
			C668,1000.4,335.6,1000.4,3.2,1000.4z M502.1,1000.8c37.3-32.5,73.8-63,108.8-95.2c60.8-56,115.9-117.2,164.3-184.4
			c39.1-54.3,72.1-111.9,95-175c25.6-70.8,34.3-143.2,20.6-217.7c-9.8-53.8-30.4-103.4-60.7-148.7c-24.1-36-53.6-67.2-88.2-93.5
			C703.1,56.9,660.6,34.9,614,21.3C530.5-3.2,447.6-0.7,365.6,29.4C298.9,53.8,243,93.5,197.7,147.5c-40,47.7-66.8,102.4-81.3,163.1
			c-11.8,49.6-13.2,99.7-6,149.8c11.8,82,44.4,156.2,88.1,225.8c30.6,48.7,65.7,94.1,105,135.9c33.4,35.6,68.9,69.4,105.1,102.1
			C437.9,950.8,469.7,974.5,502.1,1000.8z"/>
		<linearGradient id="SVGID_1_" gradientUnits="userSpaceOnUse" x1="101.3031" y1="502.746" x2="885.967" y2="502.746">
			<stop  offset="0" style="stop-color:#FBAE17"/>
			<stop  offset="1" style="stop-color:#7F47DD"/>
		</linearGradient>
		<path class="st1" d="M502.1,1000.8c-32.4-26.3-64.2-50-93.5-76.5c-36.2-32.7-71.7-66.6-105.1-102.1
			c-39.3-41.8-74.4-87.2-105-135.9c-43.7-69.6-76.4-143.9-88.1-225.8c-7.2-50.1-5.8-100.2,6-149.8c14.5-60.7,41.3-115.5,81.3-163.1
			c45.3-54,101.2-93.7,167.9-118.1C447.6-0.7,530.5-3.2,614,21.3c46.6,13.6,89.1,35.6,127.8,65.1c34.6,26.4,64.1,57.5,88.2,93.5
			c30.3,45.3,50.9,94.8,60.7,148.7c13.6,74.5,5,146.9-20.6,217.7c-22.8,63.1-55.9,120.7-95,175c-48.4,67.2-103.5,128.4-164.3,184.4
			C575.9,937.8,539.4,968.2,502.1,1000.8z M501.9,211.9c-103.5-0.2-188.4,84.1-189.1,187.8c-0.7,103.6,84.2,188.9,188.4,189.4
			c103.8,0.5,189.5-83.9,189.3-188.2C690.3,296.3,607.1,212.5,501.9,211.9z"/>
		<path class="st0" d="M501.9,211.9c105.2,0.6,188.4,84.4,188.6,189c0.2,104.3-85.5,188.7-189.3,188.2
			c-104.2-0.5-189-85.8-188.4-189.4C313.5,296,398.4,211.6,501.9,211.9z"/>
	</g>
</g>
</svg>
