<?xml version="1.0" encoding="utf-8"?>
<!-- Generator: Adobe Illustrator 21.0.0, SVG Export Plug-In . SVG Version: 6.00 Build 0)  -->
<svg version="1.1" id="Ebene_1" xmlns="http://www.w3.org/2000/svg" xmlns:xlink="http://www.w3.org/1999/xlink" x="0px" y="0px"
	 viewBox="0 0 1000 1000" style="enable-background:new 0 0 1000 1000;" xml:space="preserve">
<style type="text/css">
	.st0{fill:url(#SVGID_1_);}
	.st1{fill:url(#SVGID_2_);}
	.st2{fill:url(#SVGID_3_);}
	.st3{fill:url(#SVGID_4_);}
	.st4{fill:url(#SVGID_5_);}
	.st5{fill:url(#SVGID_6_);}
	.st6{fill:url(#SVGID_7_);}
	.st7{fill:url(#SVGID_8_);}
	.st8{fill:url(#SVGID_9_);}
	.st9{fill:url(#SVGID_10_);}
	.st10{fill:url(#SVGID_11_);}
	.st11{fill:url(#SVGID_12_);}
	.st12{fill:url(#SVGID_13_);}
	.st13{fill:url(#SVGID_14_);}
	.st14{fill:url(#SVGID_15_);}
	.st15{fill:#1D1D1B;}
</style>
<g id="XMLID_1_">
	<g>
		<g>
			<linearGradient id="SVGID_1_" gradientUnits="userSpaceOnUse" x1="877.2025" y1="420.3813" x2="877.2025" y2="306.5623">
				<stop  offset="0" style="stop-color:#F18A73"/>
				<stop  offset="0.3463" style="stop-color:#F5A377"/>
				<stop  offset="1" style="stop-color:#FFDC7F"/>
			</linearGradient>
			<polygon class="st0" points="934.1,36 934.1,804.8 820.3,558.2 820.3,558.2 			"/>
			<linearGradient id="SVGID_2_" gradientUnits="userSpaceOnUse" x1="806.8155" y1="226.6892" x2="946.5989" y2="366.4726">
				<stop  offset="0" style="stop-color:#E56969"/>
				<stop  offset="1" style="stop-color:#FBC173"/>
			</linearGradient>
			<polygon class="st1" points="934.1,36 820.3,558.2 736.4,376.5 			"/>
			<linearGradient id="SVGID_3_" gradientUnits="userSpaceOnUse" x1="668.9827" y1="206.2241" x2="934.1121" y2="206.2241">
				<stop  offset="0" style="stop-color:#714394"/>
				<stop  offset="1" style="stop-color:#EC6142"/>
			</linearGradient>
			<polygon class="st2" points="934.1,36 736.4,376.5 669,287.5 669,287.5 			"/>
			<linearGradient id="SVGID_4_" gradientUnits="userSpaceOnUse" x1="835.2703" y1="590.6089" x2="835.2703" y2="392.9253">
				<stop  offset="0" style="stop-color:#FFDC7F"/>
				<stop  offset="0.1839" style="stop-color:#FABA6E"/>
				<stop  offset="0.4285" style="stop-color:#F4935B"/>
				<stop  offset="0.6541" style="stop-color:#EF784D"/>
				<stop  offset="0.8518" style="stop-color:#ED6745"/>
				<stop  offset="1" style="stop-color:#EC6142"/>
			</linearGradient>
			<polygon class="st3" points="820.3,558.2 934.1,804.8 736.4,804.8 736.4,376.5 820.3,558.2 			"/>
			<linearGradient id="SVGID_5_" gradientUnits="userSpaceOnUse" x1="668.9827" y1="161.759" x2="934.1121" y2="161.759">
				<stop  offset="0" style="stop-color:#EC6142"/>
				<stop  offset="1" style="stop-color:#884A97"/>
			</linearGradient>
			<polygon class="st4" points="934.1,36 669,287.5 725.4,36 			"/>
			<linearGradient id="SVGID_6_" gradientUnits="userSpaceOnUse" x1="582.6746" y1="469.2737" x2="736.4285" y2="469.2737">
				<stop  offset="0" style="stop-color:#714394"/>
				<stop  offset="1" style="stop-color:#E56969"/>
			</linearGradient>
			<polygon class="st5" points="669,287.5 736.4,376.5 582.7,651 668,291.8 			"/>
			<linearGradient id="SVGID_7_" gradientUnits="userSpaceOnUse" x1="615.8426" y1="302.7059" x2="725.6668" y2="112.4848">
				<stop  offset="0" style="stop-color:#714394"/>
				<stop  offset="1" style="stop-color:#EC6142"/>
			</linearGradient>
			<polygon class="st6" points="725.4,36 669,287.5 669,287.5 505.8,442.3 			"/>
			<linearGradient id="SVGID_8_" gradientUnits="userSpaceOnUse" x1="563.7194" y1="527.1959" x2="679.106" y2="411.8093">
				<stop  offset="5.025126e-03" style="stop-color:#714394"/>
				<stop  offset="0.1785" style="stop-color:#80478A"/>
				<stop  offset="0.513" style="stop-color:#A8506F"/>
				<stop  offset="0.9714" style="stop-color:#E76045"/>
				<stop  offset="1" style="stop-color:#EC6142"/>
			</linearGradient>
			<polygon class="st7" points="669,287.5 668,291.8 582.7,651 505.8,442.3 			"/>
			<linearGradient id="SVGID_9_" gradientUnits="userSpaceOnUse" x1="365.1951" y1="546.6792" x2="582.6746" y2="546.6792">
				<stop  offset="0" style="stop-color:#714394"/>
				<stop  offset="1" style="stop-color:#C33584"/>
			</linearGradient>
			<polygon class="st8" points="505.8,442.3 582.7,651 365.2,537.2 			"/>
			<linearGradient id="SVGID_10_" gradientUnits="userSpaceOnUse" x1="463.5734" y1="594.1096" x2="681.0529" y2="594.1096">
				<stop  offset="0" style="stop-color:#714394"/>
				<stop  offset="2.765101e-02" style="stop-color:#774593"/>
				<stop  offset="0.1682" style="stop-color:#924A90"/>
				<stop  offset="0.3215" style="stop-color:#A74F8E"/>
				<stop  offset="0.4918" style="stop-color:#B6528C"/>
				<stop  offset="0.6926" style="stop-color:#BF548B"/>
				<stop  offset="1" style="stop-color:#C2558B"/>
			</linearGradient>
			<polygon class="st9" points="582.7,651 428.9,651 365.2,537.2 			"/>
			<linearGradient id="SVGID_11_" gradientUnits="userSpaceOnUse" x1="417.3214" y1="438.9861" x2="487.6295" y2="317.2089">
				<stop  offset="0" style="stop-color:#C2558B"/>
				<stop  offset="1" style="stop-color:#714394"/>
			</linearGradient>
			<polygon class="st10" points="418.4,280.6 505.8,442.3 365.2,537.2 			"/>
			<linearGradient id="SVGID_12_" gradientUnits="userSpaceOnUse" x1="77.4831" y1="158.2858" x2="418.3638" y2="158.2858">
				<stop  offset="1.507538e-02" style="stop-color:#884A97"/>
				<stop  offset="0.2478" style="stop-color:#8F4795"/>
				<stop  offset="0.5919" style="stop-color:#A3408E"/>
				<stop  offset="1" style="stop-color:#C33584"/>
			</linearGradient>
			<path class="st11" d="M286.1,36l132.2,244.6L77.5,36c0,0,46.7,0,104.3,0C239.4,36,286.1,36,286.1,36z"/>
			<linearGradient id="SVGID_13_" gradientUnits="userSpaceOnUse" x1="173.4888" y1="190.6004" x2="414.5223" y2="431.6339">
				<stop  offset="0" style="stop-color:#C33584"/>
				<stop  offset="1" style="stop-color:#884A97"/>
			</linearGradient>
			<polygon class="st12" points="418.4,280.6 365.2,537.2 275.2,376.5 77.5,36 			"/>
			<linearGradient id="SVGID_14_" gradientUnits="userSpaceOnUse" x1="176.3249" y1="590.6089" x2="176.3249" y2="392.9253">
				<stop  offset="0" style="stop-color:#4759A3"/>
				<stop  offset="2.463162e-02" style="stop-color:#4C56A1"/>
				<stop  offset="0.1351" style="stop-color:#5D4E9B"/>
				<stop  offset="0.272" style="stop-color:#684897"/>
				<stop  offset="0.4648" style="stop-color:#6F4494"/>
				<stop  offset="1" style="stop-color:#714394"/>
			</linearGradient>
			<polygon class="st13" points="275.2,376.5 275.2,804.8 77.5,804.8 			"/>
			<linearGradient id="SVGID_15_" gradientUnits="userSpaceOnUse" x1="116.1482" y1="430.8067" x2="167.3125" y2="239.859">
				<stop  offset="0" style="stop-color:#884A97"/>
				<stop  offset="0.2203" style="stop-color:#764E9B"/>
				<stop  offset="0.7295" style="stop-color:#5157A3"/>
				<stop  offset="1" style="stop-color:#435AA6"/>
			</linearGradient>
			<polygon class="st14" points="77.5,36 275.2,376.5 77.5,804.8 			"/>
		</g>
	</g>
</g>
<g>
	<path class="st15" d="M156.4,901.5L137.3,942h-19.1l-19.1-40.6v63.3H74.6V851.2h25.9l27.2,60l27.2-60h25.9v113.6h-24.5V901.5z"/>
	<path class="st15" d="M242.2,964.7h-49V942h12.3v-68.1h-12.3v-22.7h49v22.7H230V942h12.3V964.7z"/>
	<path class="st15" d="M328.1,963.1c-20.3,2.2-37.1,3.2-50.4,3.2c-8.9,0-15.4-2.5-19.6-7.5c-4.2-5-6.3-12.8-6.3-23.4v-51.9
		c0-11.4,2.2-19.6,6.5-24.7c4.3-5.1,11.2-7.7,20.8-7.7h49v22.7h-43.6c-5.4,0-8.2,3.2-8.2,9.7v51.9c0,2.5,0.6,4.5,1.8,5.9
		c1.2,1.5,2.8,2.2,4.7,2.2c1.9,0,4,0,6.3-0.1c2.3-0.1,4.6-0.1,7.1-0.2c2.5-0.1,4.9-0.2,7.4-0.3c2.5-0.1,5.7-0.3,9.7-0.6
		c4-0.3,8.9-0.7,14.8-1.1V963.1z"/>
	<path class="st15" d="M339,851.2h57.2c9.5,0,16.5,2.6,20.8,7.7c4.3,5.1,6.5,13.4,6.5,24.7v14.6c0,9-1.2,16-3.7,20.9
		c-2.5,5-6.5,8.3-11.9,9.9l17,35.7h-26.6l-15.7-34.1h-19.1v34.1H339V851.2z M398.9,883.6c0-6.5-2.7-9.7-8.2-9.7h-27.2V908h27.2
		c5.5,0,8.2-3.2,8.2-9.7V883.6z"/>
	<path class="st15" d="M522.9,933.9c0,11.4-2.2,19.6-6.5,24.7c-4.3,5.1-11.2,7.7-20.8,7.7h-34.1c-9.5,0-16.5-2.6-20.8-7.7
		c-4.3-5.1-6.5-13.4-6.5-24.7V882c0-11.4,2.2-19.6,6.5-24.7c4.3-5.1,11.2-7.7,20.8-7.7h34.1c9.5,0,16.5,2.6,20.8,7.7
		c4.3,5.1,6.5,13.4,6.5,24.7V933.9z M498.4,882c0-6.5-2.7-9.7-8.2-9.7H467c-5.4,0-8.2,3.2-8.2,9.7v51.9c0,6.5,2.7,9.7,8.2,9.7h23.2
		c5.4,0,8.2-3.2,8.2-9.7V882z"/>
	<path class="st15" d="M618.3,962.3c-21.3,2.7-40.8,4.1-58.6,4.1c-8.9,0-15.4-2.5-19.6-7.5c-4.2-5-6.3-12.8-6.3-23.4v-51.9
		c0-11.4,2.2-19.6,6.5-24.7c4.3-5.1,11.2-7.7,20.8-7.7h49v22.7h-43.6c-5.5,0-8.2,3.2-8.2,9.7v51.9c0,2.5,0.6,4.5,1.8,5.9
		s2.9,2.2,5,2.2c10.4,0,20-0.3,28.6-0.8v-23.5H576v-19.5h42.2V962.3z"/>
	<path class="st15" d="M631.9,851.2h57.2c9.5,0,16.5,2.6,20.8,7.7c4.3,5.1,6.5,13.4,6.5,24.7v14.6c0,9-1.2,16-3.7,20.9
		c-2.5,5-6.5,8.3-11.9,9.9l17,35.7h-26.6l-15.7-34.1h-19.1v34.1h-24.5V851.2z M691.8,883.6c0-6.5-2.7-9.7-8.2-9.7h-27.2V908h27.2
		c5.5,0,8.2-3.2,8.2-9.7V883.6z"/>
	<path class="st15" d="M747,964.7h-26.6l36.1-113.6h27.2l36.1,113.6h-26.6l-6.1-20.3h-34.1L747,964.7z M759.3,923.4h21.8l-10.9-38.1
		L759.3,923.4z"/>
	<path class="st15" d="M908.5,901.5L889.4,942h-19.1l-19.1-40.6v63.3h-24.5V851.2h25.9l27.2,60l27.2-60H933v113.6h-24.5V901.5z"/>
</g>
</svg>
