<?xml version="1.0" encoding="utf-8"?>
<!-- Generator: Adobe Illustrator 21.0.0, SVG Export Plug-In . SVG Version: 6.00 Build 0)  -->
<svg version="1.1" id="Ebene_1" xmlns="http://www.w3.org/2000/svg" xmlns:xlink="http://www.w3.org/1999/xlink" x="0px" y="0px"
	 viewBox="0 0 1000 1000" style="enable-background:new 0 0 1000 1000;" xml:space="preserve">
<style type="text/css">
	.st0{fill:url(#SVGID_1_);}
	.st1{fill:url(#SVGID_2_);}
	.st2{fill:url(#SVGID_3_);}
	.st3{fill:url(#SVGID_4_);}
	.st4{fill:url(#SVGID_5_);}
	.st5{fill:url(#SVGID_6_);}
	.st6{fill:url(#SVGID_7_);}
	.st7{fill:url(#SVGID_8_);}
	.st8{fill:url(#SVGID_9_);}
	.st9{fill:url(#SVGID_10_);}
	.st10{fill:url(#SVGID_11_);}
	.st11{fill:url(#SVGID_12_);}
	.st12{fill:url(#SVGID_13_);}
	.st13{fill:url(#SVGID_14_);}
	.st14{fill:url(#SVGID_15_);}
	.st15{fill:#1D1D1B;}
	.st16{font-family:'RussoOne-Regular';}
	.st17{font-size:161.5603px;}
</style>
<g id="XMLID_1_">
	<g>
		<g>
			<linearGradient id="SVGID_1_" gradientUnits="userSpaceOnUse" x1="875.092" y1="420.8057" x2="875.092" y2="307.4532">
				<stop  offset="0" style="stop-color:#F18A73"/>
				<stop  offset="0.3463" style="stop-color:#F5A377"/>
				<stop  offset="1" style="stop-color:#FFDC7F"/>
			</linearGradient>
			<polygon class="st0" points="931.8,38 931.8,803.6 818.4,558 818.4,558 			"/>
			<linearGradient id="SVGID_2_" gradientUnits="userSpaceOnUse" x1="804.9935" y1="227.9075" x2="944.2039" y2="367.1179">
				<stop  offset="0" style="stop-color:#E56969"/>
				<stop  offset="1" style="stop-color:#FBC173"/>
			</linearGradient>
			<polygon class="st1" points="931.8,38 818.4,558 734.9,377.1 			"/>
			<linearGradient id="SVGID_3_" gradientUnits="userSpaceOnUse" x1="833.3317" y1="590.3354" x2="833.3317" y2="393.4622">
				<stop  offset="0" style="stop-color:#FFDC7F"/>
				<stop  offset="0.1839" style="stop-color:#FABA6E"/>
				<stop  offset="0.4285" style="stop-color:#F4935B"/>
				<stop  offset="0.6541" style="stop-color:#EF784D"/>
				<stop  offset="0.8518" style="stop-color:#ED6745"/>
				<stop  offset="1" style="stop-color:#EC6142"/>
			</linearGradient>
			<polygon class="st2" points="818.4,558 931.8,803.6 734.9,803.6 734.9,377.1 818.4,558 			"/>
			<linearGradient id="SVGID_4_" gradientUnits="userSpaceOnUse" x1="667.7257" y1="163.2435" x2="931.7682" y2="163.2435">
				<stop  offset="0" style="stop-color:#EC6142"/>
				<stop  offset="1" style="stop-color:#884A97"/>
			</linearGradient>
			<polygon class="st3" points="931.8,38 667.7,288.5 724,38 			"/>
			<linearGradient id="SVGID_5_" gradientUnits="userSpaceOnUse" x1="614.8035" y1="303.6126" x2="724.1775" y2="114.1712">
				<stop  offset="0" style="stop-color:#714394"/>
				<stop  offset="1" style="stop-color:#EC6142"/>
			</linearGradient>
			<polygon class="st4" points="724,38 667.7,288.5 667.7,288.5 505.2,442.7 			"/>
			<linearGradient id="SVGID_6_" gradientUnits="userSpaceOnUse" x1="667.7257" y1="207.5263" x2="931.7682" y2="207.5263">
				<stop  offset="0" style="stop-color:#714394"/>
				<stop  offset="1" style="stop-color:#EC6142"/>
			</linearGradient>
			<polygon class="st5" points="667.7,288.5 931.8,38 734.9,377.1 667.7,288.5 			"/>
			<linearGradient id="SVGID_7_" gradientUnits="userSpaceOnUse" x1="581.7714" y1="469.4976" x2="734.895" y2="469.4976">
				<stop  offset="0" style="stop-color:#714394"/>
				<stop  offset="1" style="stop-color:#E56969"/>
			</linearGradient>
			<polygon class="st6" points="667.7,288.5 734.9,377.1 581.8,650.5 666.8,292.7 			"/>
			<linearGradient id="SVGID_8_" gradientUnits="userSpaceOnUse" x1="562.8939" y1="527.1824" x2="677.8075" y2="412.2688">
				<stop  offset="5.025126e-03" style="stop-color:#714394"/>
				<stop  offset="0.1785" style="stop-color:#80478A"/>
				<stop  offset="0.513" style="stop-color:#A8506F"/>
				<stop  offset="0.9714" style="stop-color:#E76045"/>
				<stop  offset="1" style="stop-color:#EC6142"/>
			</linearGradient>
			<polygon class="st7" points="505.2,442.7 667.7,288.5 666.8,292.7 581.8,650.5 			"/>
			<linearGradient id="SVGID_9_" gradientUnits="userSpaceOnUse" x1="417.096" y1="439.3341" x2="487.1159" y2="318.0561">
				<stop  offset="0" style="stop-color:#C2558B"/>
				<stop  offset="1" style="stop-color:#714394"/>
			</linearGradient>
			<polygon class="st8" points="505.2,442.7 365.2,537.2 418.1,281.6 			"/>
			<linearGradient id="SVGID_10_" gradientUnits="userSpaceOnUse" x1="365.1835" y1="546.5858" x2="581.7714" y2="546.5858">
				<stop  offset="0" style="stop-color:#714394"/>
				<stop  offset="1" style="stop-color:#C33584"/>
			</linearGradient>
			<polygon class="st9" points="505.2,442.7 581.8,650.5 365.2,537.2 			"/>
			<linearGradient id="SVGID_11_" gradientUnits="userSpaceOnUse" x1="463.1585" y1="593.8217" x2="679.7464" y2="593.8217">
				<stop  offset="0" style="stop-color:#714394"/>
				<stop  offset="2.765101e-02" style="stop-color:#774593"/>
				<stop  offset="0.1682" style="stop-color:#924A90"/>
				<stop  offset="0.3215" style="stop-color:#A74F8E"/>
				<stop  offset="0.4918" style="stop-color:#B6528C"/>
				<stop  offset="0.6926" style="stop-color:#BF548B"/>
				<stop  offset="1" style="stop-color:#C2558B"/>
			</linearGradient>
			<polygon class="st10" points="365.2,537.2 581.8,650.5 428.6,650.5 			"/>
			<linearGradient id="SVGID_12_" gradientUnits="userSpaceOnUse" x1="78.6509" y1="159.7846" x2="418.1342" y2="159.7846">
				<stop  offset="1.507538e-02" style="stop-color:#884A97"/>
				<stop  offset="0.2478" style="stop-color:#8F4795"/>
				<stop  offset="0.5919" style="stop-color:#A3408E"/>
				<stop  offset="1" style="stop-color:#C33584"/>
			</linearGradient>
			<path class="st11" d="M418.1,281.6L78.7,38c0,0,46.5,0,103.9,0c57.4,0,103.9,0,103.9,0L418.1,281.6z"/>
			<linearGradient id="SVGID_13_" gradientUnits="userSpaceOnUse" x1="177.0875" y1="590.3354" x2="177.0875" y2="393.4622">
				<stop  offset="0" style="stop-color:#4759A3"/>
				<stop  offset="2.463162e-02" style="stop-color:#4C56A1"/>
				<stop  offset="0.1351" style="stop-color:#5D4E9B"/>
				<stop  offset="0.272" style="stop-color:#684897"/>
				<stop  offset="0.4648" style="stop-color:#6F4494"/>
				<stop  offset="1" style="stop-color:#714394"/>
			</linearGradient>
			<polygon class="st12" points="275.5,377.1 275.5,803.6 78.7,803.6 			"/>
			<linearGradient id="SVGID_14_" gradientUnits="userSpaceOnUse" x1="174.2631" y1="191.9666" x2="414.3085" y2="432.0121">
				<stop  offset="0" style="stop-color:#C33584"/>
				<stop  offset="1" style="stop-color:#884A97"/>
			</linearGradient>
			<polygon class="st13" points="418.1,281.6 365.2,537.2 275.5,377.1 78.7,38 			"/>
			<linearGradient id="SVGID_15_" gradientUnits="userSpaceOnUse" x1="117.1575" y1="431.1883" x2="168.112" y2="241.0233">
				<stop  offset="0" style="stop-color:#884A97"/>
				<stop  offset="0.2203" style="stop-color:#764E9B"/>
				<stop  offset="0.7295" style="stop-color:#5157A3"/>
				<stop  offset="1" style="stop-color:#435AA6"/>
			</linearGradient>
			<polygon class="st14" points="78.7,38 275.5,377.1 78.7,803.6 			"/>
		</g>
	</g>
</g>
<text transform="matrix(0.8367 0 0 1 71 962.9238)" class="st15 st16 st17">MICROGRAM</text>
</svg>
