<?xml version="1.0" encoding="utf-8"?>
<!-- Generator: Adobe Illustrator 21.0.0, SVG Export Plug-In . SVG Version: 6.00 Build 0)  -->
<svg version="1.1" id="Ebene_1" xmlns="http://www.w3.org/2000/svg" xmlns:xlink="http://www.w3.org/1999/xlink" x="0px" y="0px"
	 viewBox="0 0 1000 1000" style="enable-background:new 0 0 1000 1000;" xml:space="preserve">
<style type="text/css">
	.st0{fill:url(#SVGID_1_);}
</style>
<linearGradient id="SVGID_1_" gradientUnits="userSpaceOnUse" x1="229.7737" y1="48.9544" x2="770.2263" y2="985.0456">
	<stop  offset="0" style="stop-color:#714394"/>
	<stop  offset="1" style="stop-color:#FBC173"/>
</linearGradient>
<path class="st0" d="M981.1,389.7c7.6-6.1,18.9-0.4,18.9,9.2v399.4c0,51.8-42,93.8-93.8,93.8H93.8C42,892,0,850,0,798.2V399
	c0-9.8,11.1-15.2,18.9-9.2c43.7,34,101.8,77.1,301,221.9c41.2,30.1,110.7,93.4,180.1,93c69.7,0.6,140.6-64.1,180.3-93
	C879.5,467,937.3,423.6,981.1,389.7z M500,642c45.3,0.8,110.5-57,143.4-80.9C902.5,373.1,922.3,356.6,982,309.8
	c11.3-8.8,18-22.5,18-36.9v-37.1c0-51.8-42-93.8-93.8-93.8H93.8C42,142,0,184,0,235.7v37.1c0,14.5,6.6,27.9,18,36.9
	c59.8,46.7,79.5,63.3,338.7,251.4C389.5,585,454.7,642.8,500,642L500,642z"/>
</svg>
