<?xml version="1.0" encoding="utf-8"?>
<!-- Generator: Adobe Illustrator 21.0.0, SVG Export Plug-In . SVG Version: 6.00 Build 0)  -->
<svg version="1.1" id="Ebene_1" xmlns="http://www.w3.org/2000/svg" xmlns:xlink="http://www.w3.org/1999/xlink" x="0px" y="0px"
	 viewBox="0 0 1000 1000" style="enable-background:new 0 0 1000 1000;" xml:space="preserve">
<style type="text/css">
	.st0{fill:#B1B1B3;}
	.st1{fill:#D4D0CD;}
	.st2{fill:#E9E8E6;}
	.st3{fill:#62ACD9;}
	.st4{fill:#84CDEB;}
	.st5{fill:#6388A3;}
</style>
<g>
	<polygon class="st0" points="657.2,272.7 657.2,1000 736,954.5 736,227.3 	"/>
	<polygon class="st1" points="263.7,45.5 263.5,772.7 657.2,1000 657.2,272.7 	"/>
	<polygon class="st2" points="342.2,0 263.7,45.5 657.2,272.8 736,227.3 	"/>
	<polygon class="st3" points="342.3,225.5 342.3,636.4 578.5,773 578.5,361.9 	"/>
	<g>
		<path class="st4" d="M368.7,240.8c-8.8,8.8-17.6,17.6-26.4,26.4v73.7c24.4-24.4,48.7-48.7,73.1-73.1L368.7,240.8z"/>
		<path class="st4" d="M389.2,663.5l64.6,37.4c41.7-41.7,83.2-83.2,124.7-124.7V474.2c-5.2,5.2-10.4,10.4-15.6,15.6
			C505,547.7,447.1,605.6,389.2,663.5z"/>
		<path class="st4" d="M455.5,290.9c-37.7,37.7-75.5,75.5-113.2,113.2v222.5c78.7-78.7,157.5-157.5,236.2-236.2v-28.5L455.5,290.9z"
			/>
	</g>
	<path class="st0" d="M460.3,753.1c-21.7-12.6-39.4-2.4-39.4,22.7c0,25.1,17.6,55.6,39.4,68.2c21.7,12.6,39.4,2.4,39.4-22.7
		C499.6,796.2,482,765.7,460.3,753.1z"/>
	<path class="st0" d="M498.2,236.8L422.4,193c-8.1-4.6-14.6-0.9-14.6,8.4v1.3c0,9.3,6.5,20.6,14.6,25.3l75.8,43.8
		c8.1,4.7,14.6,0.9,14.6-8.4V262C512.8,252.8,506.3,241.4,498.2,236.8z"/>
	<polygon class="st4" points="359.8,626.3 342.3,636.4 578.5,773 578.5,754.2 	"/>
	<polygon class="st5" points="342.3,225.5 342.3,636.4 359.8,626.3 359.8,235.6 	"/>
</g>
</svg>
