<?xml version="1.0" encoding="utf-8"?>
<!-- Generator: Adobe Illustrator 21.0.0, SVG Export Plug-In . SVG Version: 6.00 Build 0)  -->
<svg version="1.1" id="Ebene_1" xmlns="http://www.w3.org/2000/svg" xmlns:xlink="http://www.w3.org/1999/xlink" x="0px" y="0px"
	 viewBox="0 0 1000 1000" style="enable-background:new 0 0 1000 1000;" xml:space="preserve">
<style type="text/css">
	.st0{fill:#FFED8E;}
	.st1{fill:#E6AC00;}
	.st2{fill:#FED544;}
</style>
<g>
	<g>
		<path class="st0" d="M317.5,405.5c65.1-60.8,66.7-154.5,63.6-245.4L200.3,85.6c-10.7-4.4-20.4-4.1-27.6,0.3l0,0l-76.2,43.7
			l81.9,41.4L317.5,405.5z"/>
		<path class="st0" d="M438.2,111l130.1-75.1c-8.4-12.4-18.9-22.9-29.9-29.3c-12.7-7.3-24.5-8.5-33.3-3.8v0l-76.2,43.7l34.5,21.2
			L438.2,111z"/>
		<path class="st0" d="M674,325.7l-374.1,216l-13.4,81.1c-3.1,18.6,4.3,43.6,19,64.2c8.3,11.7,18.2,20.9,28.1,26.7
			c7.6,4.4,15.3,6.8,22.3,6.6l93.8-1.9l423.7-244.6L674,325.7z"/>
	</g>
	<g>
		<path class="st1" d="M674,325.7l-1.6-1.2L581.3,61.7c-3.2-9.1-7.6-17.9-13-25.9L438.2,111l-34,58.7l-23.1-9.5
			c3.1,90.9,1.5,184.6-63.6,245.4l3.8,6.5l-21.4,129.8L674,325.7z"/>
		<path class="st1" d="M914.9,535.3c-5.6-22.9-20.6-46-38.7-59.4l-2.9-2.1L449.8,718.4l88.6-1.8l145.6,171.1l18.7,108.4l73.2-42l0,0
			c11.6-5.7,17.1-20.8,14.3-40.5l-34.8-251.1l147.5-78.4C915.9,577.1,920.6,558.2,914.9,535.3z"/>
	</g>
	<path class="st2" d="M839.3,578.7c-5.6-22.9-20.6-46-38.7-59.4L596.8,367.9l-91.2-262.8c-8.1-23.3-24.7-44.6-42.9-55.1
		c-18.2-10.5-34.8-8.4-42.9,5.6l-91.2,157.4l-203.9-84c-18-7.4-33-1.7-38.6,14.8c-5.6,16.4-0.9,40.8,12.1,62.8l147.5,248.7
		l-34.8,210.9c-3.1,18.6,4.3,43.6,19,64.2c8.3,11.7,18.2,20.9,28.1,26.7c7.6,4.4,15.3,6.8,22.3,6.6l182.4-3.8L645,974.3
		c7,8.2,14.7,14.7,22.3,19.1c9.9,5.7,19.8,7.9,28.1,5.8c14.7-3.6,22.1-20.1,19-42.3l-34.8-251.1l147.5-78.4
		C840.2,620.6,844.9,601.6,839.3,578.7z"/>
</g>
</svg>
