<?xml version="1.0" encoding="utf-8"?>
<!-- Generator: Adobe Illustrator 22.1.0, SVG Export Plug-In . SVG Version: 6.00 Build 0)  -->
<svg version="1.1" id="Ebene_1" xmlns="http://www.w3.org/2000/svg" xmlns:xlink="http://www.w3.org/1999/xlink" x="0px" y="0px"
	 viewBox="0 0 1000 1000" style="enable-background:new 0 0 1000 1000;" xml:space="preserve">
<style type="text/css">
	.st0{fill:#F08185;}
	.st1{fill:#CF3F3E;}
	.st2{fill:#EA5657;}
	.st3{fill:#FBFAE3;}
	.st4{fill:#97B555;}
	.st5{fill:#A1948B;}
	.st6{fill:#729551;}
</style>
<g>
	<path class="st0" d="M603.1,82.3c-95.9-55.3-182.5-60.2-245-23.3l0,0l-68.3,39.8l14.2,11.2c-28.9,41.5-45.4,99.4-45.4,171.2
		c0,130,54,276.5,137.5,397.3L878.4,400C815.6,267.3,715.7,147.3,603.1,82.3z"/>
	<path class="st1" d="M947.6,678.9c0-89.7-25.7-187.4-69.1-279L396.1,678.5c57.6,83.4,129.3,154.5,207,199.3
		c56.8,32.8,110.5,47.9,157.7,47l14.7,18.4l68.8-40l0,0C908.1,867.8,947.6,790.1,947.6,678.9z"/>
	<path class="st2" d="M879,718.9c0-217.6-151.3-481.6-339.1-593.4l0,0c-1.8-1.1-3.6-2.2-5.3-3.2C344.3,12.4,190.1,101.5,190.1,321.1
		c0,219.7,154.2,486.8,344.5,596.6c1.8,1,3.6,1.9,5.3,2.9l0,0C727.6,1025.8,879,936.5,879,718.9z"/>
	<g>
		<path class="st3" d="M534.5,289.3c110.2,63.6,199.8,218.8,199.8,346s-89.6,178.9-199.8,115.3c-110.2-63.6-199.8-218.8-199.8-346
			C334.7,277.5,424.4,225.7,534.5,289.3L534.5,289.3z M534.5,225.7c-140.8-81.3-254.9-15.4-254.9,147.2
			c0,162.6,114.1,360.2,254.9,441.5c140.8,81.3,254.9,15.4,254.9-147.2C789.4,504.6,675.3,307,534.5,225.7L534.5,225.7z"/>
		<path class="st3" d="M534.5,456.4c30.4,17.6,55.1,60.4,55.1,95.5c0,35.1-24.7,49.4-55.1,31.8c-30.4-17.6-55.1-60.4-55.1-95.5
			S504.1,438.8,534.5,456.4L534.5,456.4z M534.5,392.7c-60.9-35.1-110.2-6.7-110.2,63.6c0,70.3,49.4,155.8,110.2,190.9
			c60.9,35.1,110.2,6.7,110.2-63.6S595.4,427.9,534.5,392.7L534.5,392.7z"/>
	</g>
	<g>
		<polygon class="st4" points="190.2,639.7 52.4,719.3 121.3,759.1 259.1,679.5 		"/>
		<g>
			<path class="st5" d="M121.2,778.3c-6.6,0-13-3.4-16.6-9.6c-5.3-9.2-2.2-20.9,7-26.1l414.1-239.2c9.1-5.3,20.9-2.2,26.1,7
				c5.3,9.2,2.2,20.9-7,26.1L130.7,775.7C127.7,777.5,124.4,778.3,121.2,778.3z"/>
		</g>
		<polygon class="st6" points="121.3,840.9 121.3,761.4 259.1,681.8 259,761.3 		"/>
	</g>
</g>
</svg>
